Patient4_TMGait_0pt8_01_left_25_EMG.mot
version=1
nRows=36
nColumns=33
inDegrees=no
endheader
time	1LAddLong	2LGlutMax	3LGlutMed	4LIliopsoas	5LSemiMemb	6LBicFemLong	7LRecFem	8LVastMed	9LVastLat	10LGasMed	11LTibAnt	12lTibPost	13LPeroneusLong	14LSol	15LExtDigLong	16LFlexDigLong	17RAddLong	18RGlutMax	19RGlutMed	20RIliopsoas	21RSemiMemb	22RBicFemLong	23RRecFem	24RVastMed	25RVastLat	26RGasMed	27RTibAnt	28RTibPost	29RPeroneusLong	30RSol	31RExtDigLong	32RFlexDigLong
27.36	0.020599	-1.4355	-0.03006	0.003662	-0.006714	-0.011902	-0.10971	0.010834	-0.67947	-0.026398	0.016937	-0.009003	0.025482	0.066986	0.031891	0.010071	-0.019989	-0.10956	-0.21393	0.13596	-0.10452	0.043793	0.29282	0.31128	-0.23254	-0.025787	-0.52216	-0.00412	0.12009	-0.59876	0.001984	-0.004578
27.361	0.015259	-1.55	-0.045929	0.010681	-0.002594	-0.016785	-0.093994	0.005188	-0.54627	-0.054779	-0.038452	-0.006256	0.042114	0.079041	0.079346	0.00473	-0.024261	-0.092163	-0.037231	0.089722	0.050507	0.023193	-0.010223	0.18143	-0.75089	-0.020142	-0.62714	0.000153	0.09903	-0.4068	-0.000458	-0.005798
27.362	0.02182	-1.6402	-0.041199	0.006561	-0.011139	-0.028839	-0.11215	0.019379	-0.40741	-0.033875	-0.038757	-0.00351	0.047455	0.065002	0.023041	0.016632	-0.010376	-0.13931	0.28519	0.068359	0.07843	0.013123	-0.31799	-0.052643	-1.0321	-0.023346	-0.59174	-0.002594	-0.040436	-0.37567	-0.002441	-0.00061
27.363	0.015564	-1.6412	-0.044556	0.020142	-0.009766	-0.0383	-0.11887	-0.010071	-0.27008	-0.041504	0.01297	-0.014496	0.103	0.059814	-0.051117	0.007629	0.005798	-0.071411	0.38254	0.016174	0.084686	-0.014191	-0.10056	0.023041	-0.53482	-0.022888	-0.087433	0.004883	0.177	-0.32257	0.001678	-0.006714
27.364	0.003967	-1.6116	-0.043945	-0.000763	-0.000153	-0.062103	-0.12268	-0.0177	-0.13733	-0.033264	0.076904	-0.011139	0.10117	0.080566	-0.041351	-0.00885	-0.002594	-0.068817	-0.12131	-0.036163	0.070343	-0.025024	-0.19501	-0.086212	-0.15762	0.000763	0.72281	0.002289	0.40192	-0.001221	0.000763	-0.00351
27.365	0.019836	-1.6057	-0.043945	0.028534	0.006714	-0.068665	-0.12299	0	-0.046692	-0.031281	0.019379	-0.015259	0.099335	0.029907	-0.014954	0.008698	-0.05127	-0.054169	-0.018158	-0.048676	0.076752	-0.051575	-0.46234	0.056763	0.12573	0.010223	0.67184	-0.003357	0.18585	0.053101	-0.000763	-0.002747
27.366	0.018005	-1.595	-0.046997	0.030518	0.00946	-0.065155	-0.12619	0.014954	0.035248	-0.036011	0.003204	-0.011749	0.081177	0.002136	0.032959	-0.003052	-0.033112	-0.1149	-0.29511	-0.014648	0.074768	-0.043335	-0.46097	0.067596	0.12421	0.018005	0.12787	-0.003967	-0.11765	0.09903	-0.001526	-0.002594
27.367	0.017395	-1.6017	-0.045929	0.012512	0.005493	-0.078888	-0.11871	0.010071	0.091858	-0.051727	-0.013275	-0.013275	0.053101	-0.036926	0.054474	0.005798	-0.000916	-0.12573	-0.94879	-0.020142	0.06546	-0.018158	-0.31448	0.15595	0.050049	0.010681	0.42633	-0.011139	-0.20264	0.084991	0.001831	-0.003662
27.368	0.019836	-1.5747	-0.042114	0.004578	0.011749	-0.085602	-0.10544	0.004425	0.13809	-0.057526	-0.001526	-0.014648	0.032349	-0.10544	0.11627	0.004425	0.019073	-0.079498	-0.69351	0.005951	0.041046	-0.046082	-0.24368	0.074463	-0.026703	-0.001831	0.44571	-0.014496	-0.088959	0.069885	0.000305	-0.014343
27.369	0.016479	-1.5524	-0.050507	0.002594	-0.003357	-0.091553	-0.10239	0.009155	0.18585	-0.042114	-0.007935	-0.011444	0.067291	-0.10788	0.084839	0.000763	0.026398	-0.13855	0.039063	-0.061646	0.040588	-0.071564	-0.35904	-0.055847	-0.024261	-0.020752	0.23086	-0.013733	0.041656	-0.087738	-0.004425	-0.019073
27.37	0.018768	-1.4735	-0.04364	-0.013123	-0.033264	-0.10498	-0.11246	0.010986	0.20371	-0.018158	-0.007477	-0.019379	0.075836	-0.11322	0.037231	0.002136	0.010223	-0.21866	0.18662	-0.083771	-0.056763	-0.057373	-0.27313	-0.072021	0.019989	-0.033112	0.20859	0.009918	-0.09552	-0.097198	-0.001373	-0.01709
27.371	0.009613	-1.3562	-0.063019	-0.004578	-0.000305	-0.12512	-0.1152	0.005646	0.24429	-0.023346	-0.005493	-0.019531	0.10223	-0.064697	0.021515	0.000916	-0.007629	-0.2211	0.2771	-0.088959	-0.081787	-0.10056	-0.17807	-0.042877	0.020447	-0.030823	-0.11887	0.044861	0.014954	0.1001	-0.002899	0
27.372	0.018005	-1.1861	-0.085144	0.015106	0.014038	-0.11871	-0.11246	-0.004425	0.28229	-0.025635	0.007019	-0.021973	0.092926	-0.028687	-0.025635	0.006409	-0.003967	-0.27283	0.011139	-0.06485	-0.03891	-0.088501	-0.17425	0.018311	0.013275	-0.015106	-0.13626	-0.20355	0.11292	0.19959	0.000763	-0.016937
27.373	0.015564	-0.95398	-0.07019	0.005798	0.012512	-0.1004	-0.12268	0.005646	0.30914	0.010376	0.002441	-0.019226	0.068054	0.025177	-0.039215	0.007477	0.009308	-0.23239	0.009613	-0.03891	0.033722	-0.072784	-0.18494	-0.003662	-0.00412	0.018768	-0.035706	0.067596	0.29862	0.038147	0.007629	-0.00885
27.374	0.008392	-0.6807	-0.080719	-0.000458	-0.011597	-0.080261	-0.11292	0.002747	0.31403	0.029144	0.004883	-0.013123	0.041809	-0.01709	-0.057983	0.001984	0.015869	-0.25589	-0.20081	-0.052795	-0.10849	-0.045319	-0.21576	-0.014343	-0.001373	0.021973	-0.030365	0.012665	0.43121	-0.13733	-0.003815	-0.005341
27.375	0.017242	-0.45654	-0.05127	-0.001221	-0.018005	-0.075836	-0.12054	0.005188	0.36026	0.009918	-0.001678	-0.014496	0.052948	-0.058441	-0.056915	-0.004578	0.002441	-0.22842	-0.22034	-0.022125	-0.25238	-0.00061	-0.27008	0.019379	-0.023193	0.029144	-0.092468	0.007019	0.46753	-0.2034	0.001221	-0.002747
27.376	0.013733	-0.25055	-0.08316	0.003662	-0.00824	-0.083008	-0.11154	0.00473	0.3833	-0.016785	0.002289	-0.009918	0.066833	-0.019531	0.039978	-0.00351	0.007324	-0.26901	0.17731	0.026398	-0.21713	-0.01236	-0.24811	0.001831	-0.071716	0.020599	-0.078583	-0.000305	0.34134	-0.33493	0.002594	-0.003052
27.377	0.007477	-0.040131	-0.048523	-0.017548	0.000153	-0.068817	-0.11597	0.002289	0.38513	-0.033875	-0.015717	-0.012054	0.052032	0.005798	0.12085	0.025635	0.004272	-0.27344	0.054321	0.025482	0.31555	0.058899	-0.17731	0.051117	-0.080261	0.008698	-0.028381	-0.008392	-0.1799	-0.14389	0.00351	-0.002747
27.378	0.016327	0.1796	-0.039673	0.004578	0.001373	-0.04837	-0.1268	0.00824	0.3775	-0.024567	-0.008545	-0.0177	0.053711	0.043182	0.2562	0.00351	0.015869	-0.28824	0.023956	0.02533	0.32074	0.10223	-0.13763	0.004578	-0.067749	-0.023499	0.026398	-0.010223	-0.26932	-0.16739	0.000763	-0.007019
27.379	0.007324	0.32791	0.010223	0.017395	-0.010986	-0.017242	-0.12802	0.009613	0.39185	-0.03418	0.027618	-0.016937	0.028687	0.039673	-0.03952	0.015717	0.020752	-0.22934	0.27359	-0.014954	0.1535	0.07431	-0.080261	-0.053558	-0.054321	-0.011749	0.056152	-0.016022	-0.085602	-0.50674	0.001221	-0.018921
27.38	0.013733	0.46265	0.034943	-0.005798	-0.024872	-0.023346	-0.13168	0.00351	0.37888	-0.025635	0.058441	-0.015411	0.004272	0.045776	-0.28503	-0.003357	0.023804	-0.26688	-0.011292	-0.032806	0.081024	0.10681	-0.10834	0.013733	-0.042572	-0.02121	0.036774	-0.049133	-0.2771	-0.88287	-0.004578	-0.020599
27.381	0.013275	0.57892	0.015411	0.006714	-0.059509	-0.053101	-0.12192	0.004883	0.392	-0.035248	0.051422	-0.013123	-0.002899	-0.006561	-0.08255	-0.003204	0.00885	-0.31265	-0.10727	-0.040741	-0.233	0.1741	-0.030365	0.017548	-0.072784	-0.076141	0.061951	-0.11337	-0.29739	-0.29495	-0.002136	-0.011597
27.382	0.028076	0.63263	0.003052	-0.014343	-0.015564	-0.12589	-0.14282	0.001526	0.39383	-0.03891	0.010834	-0.01297	-0.005646	-0.008087	-0.12054	-0.010834	-0.0354	-0.32044	-0.20279	0.02594	-0.15762	0.12985	-0.042572	-0.003815	-0.060425	-0.060272	0.03891	-0.050812	-0.20554	0.46585	-0.004578	-0.021057
27.383	0.024719	0.74219	-0.018463	0.010681	0.01709	-0.095062	-0.13199	0.003357	0.40283	-0.085297	0.014954	-0.01236	-0.006561	-0.006866	-0.10483	-0.022736	-0.046539	-0.31708	0.30487	0.040588	-0.076599	0.061951	-0.081635	-0.041809	-0.069122	-0.016937	0.039673	-0.063171	-0.058594	0.32837	-0.007019	-0.01297
27.384	0.022125	0.79666	-0.019836	-0.005341	-0.002899	-0.094757	-0.11292	0.000305	0.39337	-0.11429	-0.006104	-0.018921	0.010834	-0.001526	-0.015259	-0.013123	-0.017395	-0.35309	0.14038	0.029449	0.10208	-0.023804	0.03006	-0.005493	-0.076904	-0.028687	0.077972	0.07782	0.39536	0.22614	-0.001221	-0.012054
27.385	0.018158	0.86151	-0.023041	-0.005493	-0.007019	-0.057068	-0.11993	0.000916	0.39017	-0.13611	-0.01236	-0.015717	0.043182	-0.018616	0.025482	-0.00473	-0.016022	-0.37384	0.15305	-0.072632	0.11871	-0.014496	-0.051727	-0.028992	-0.039825	-0.013275	0.075531	0.15243	0.30075	0.23132	0.002899	-0.012817
27.386	0.016174	0.94376	-0.028687	0	0.008392	-0.026093	-0.10529	0.00412	0.38101	-0.17609	-0.003967	-0.016632	0.06546	-0.007935	0.015411	-0.012817	-0.016479	-0.40497	-0.22308	-0.01236	0.045776	0.011139	-0.13626	-0.02243	0.002289	-0.002441	0.073853	0.093079	0.14648	0.39368	-0.006409	-0.001831
27.387	0.016479	0.99808	-0.025787	0.00885	0.011444	-0.036926	-0.11154	0.002594	0.37705	-0.16113	0.003204	-0.020294	0.055389	-0.024719	0.00824	-0.007019	0.00351	-0.40771	0.10284	0.002441	0.014954	-0.001373	-0.11536	-0.030212	0.034485	0.005646	0.10315	0.050964	0.19882	0.76553	-0.000916	-0.001526
27.388	0.013428	0.98587	-0.047302	0.005493	0.021667	-0.031281	-0.13199	0.003204	0.38437	-0.1181	0.017853	-0.016022	0.079956	-0.029755	0.000305	-0.010223	0.006104	-0.39017	0.06546	0.056	0.006561	0.011749	-0.31433	-0.20004	-0.025635	0.010529	0.098114	0.014648	-0.007782	0.72037	-0.005035	-0.002899
27.389	0.015411	0.99274	-0.046844	-0.001526	-0.002899	-0.029144	-0.11948	0.003204	0.36957	-0.056458	0.02243	-0.014496	0.097656	0.006561	-0.002594	0.007477	-0.005951	-0.448	-0.17166	0.024414	0.014496	-0.00885	-0.44434	-0.18631	0.001984	0.024872	-0.025177	-0.014038	-0.01297	0.12634	-0.001526	-0.013123
27.39	0.01297	1.0158	-0.10666	0.000153	0.000763	-0.011139	-0.13153	0.001984	0.37354	0.079193	0.012207	-0.005646	0.086212	-0.003967	0.010071	0.009308	0.015564	-0.55466	0.616	-0.10208	0.005646	-0.022583	-0.27268	-0.057068	-0.015564	0.019684	-0.080109	-0.021667	0.054932	-0.22537	-0.003052	-0.011444
27.391	0.024261	1.0764	-0.10117	0.040894	-0.018158	0.012207	-0.12665	0.003815	0.37796	0.14465	0.000763	-0.01297	0.082397	-0.003204	0.018921	0.000305	0.019531	-0.57083	0.89645	-0.16159	-0.009766	-0.035095	-0.036774	0.069122	-0.008698	-0.001831	-0.014801	-0.021515	0.021362	-0.48813	0	-0.011597
27.392	0.014191	1.1107	-0.051727	0.026245	0.016174	0.014648	-0.13367	0.005341	0.37918	0.14664	-0.017242	-0.013428	0.047913	0.004272	0.020142	-0.002441	0.019226	-0.58548	0.55237	-0.20508	-0.066223	-0.017395	-0.1088	0.030975	-0.094452	-0.020142	0.027466	-0.016022	-0.057526	-0.45105	-0.002136	-0.009308
27.393	0.014038	1.165	-0.011749	0.012207	0.001984	0.012207	-0.13062	0.002899	0.38101	0.079651	-0.013428	-0.01358	0.030212	-0.031433	0.019684	0.015259	0.011292	-0.51331	0.003815	-0.12863	-0.12253	0.028687	-0.37125	-0.16464	-0.10346	-0.032806	0.098419	-0.024109	0.159	-0.3862	-0.001526	-0.009003
27.394	0.005188	1.1478	0.034485	-0.012054	0.003204	0.034332	-0.13306	0.006561	0.38574	0.020447	0.010223	-0.014343	0.05661	-0.033417	0.011902	-0.001068	0	-0.51682	0.11032	0.050964	-0.15137	0.04425	-0.5127	-0.11597	-0.012512	-0.019379	0.21652	-0.003204	0.067291	0.31265	0.002594	-0.01358
27.395	-0.006714	1.1606	-0.019073	0.00351	-0.018158	0.027161	-0.11917	0.005188	0.38757	-0.067902	0.001831	-0.021515	0.083466	-0.058899	0.007019	-0.015869	0.010223	-0.54352	0.27084	0.26077	0.1831	-0.018616	-0.40802	-0.038757	-0.10346	-0.016479	0.17166	0.002747	-0.25406	0.48721	0.002136	-0.000458
